<svg width="371" height="251" viewBox="0 0 371 251" fill="none" xmlns="http://www.w3.org/2000/svg">
<path fill-rule="evenodd" clip-rule="evenodd" d="M186.403 196.492C188.658 194.443 325.87 57.7936 325.87 57.7936L370.498 57.64C370.498 57.64 255.522 172.001 248.246 179.379L241.022 186.552C223.806 203.614 208.794 218.422 206.898 220.061C184.299 239.568 155.439 250.297 125.585 250.291C92.4997 250.264 60.7764 237.112 37.3767 213.722C13.977 190.332 0.812185 158.614 0.771484 125.529C0.798622 92.4347 13.9574 60.7037 37.3585 37.3025C60.7597 13.9014 92.4908 0.742631 125.585 0.715493C157.642 0.646996 188.477 13.0071 211.612 35.1982L265.001 88.5871C265.001 88.5871 248.707 105.034 242.866 110.824L241.227 112.412L228.008 125.529L214.686 138.851L204.439 149.354C201.519 152.171 198.703 154.987 195.835 157.855L193.218 160.473C176.207 177.483 156.942 196.748 127.481 196.748C108.601 196.721 90.5014 189.209 77.151 175.859C63.8006 162.508 56.2883 144.409 56.2612 125.529C56.2883 106.649 63.8006 88.5496 77.151 75.1993C90.5014 61.8489 108.601 54.3366 127.481 54.3095C147.873 54.3095 167.804 64.0958 186.711 83.4634L191.834 88.8945C197.321 94.7188 202.944 100.378 208.565 106.033C210.608 108.089 212.65 110.144 214.686 112.207C218.734 108.262 224.114 102.933 229.545 97.5023L189.887 57.8962C172.566 41.3734 149.523 32.1931 125.585 32.2777C100.821 32.3048 77.0783 42.1543 59.5674 59.6652C42.0564 77.1762 32.2069 100.918 32.1798 125.683C32.2205 150.438 42.076 174.167 59.5855 191.667C77.095 209.167 100.83 219.009 125.585 219.036C147.902 219.037 169.479 211.038 186.403 196.492ZM179.845 147.51C186.977 140.234 194.157 132.953 201.467 125.683C193.713 117.895 186.044 110.09 178.461 102.267L173.338 96.785C157.864 80.9528 142.903 73.3186 127.532 73.3186C113.648 73.3321 100.337 78.8533 90.5197 88.6706C80.7025 98.4878 75.1813 111.799 75.1677 125.683C75.1269 139.575 80.6031 152.916 90.3931 162.773C100.183 172.63 113.486 178.198 127.378 178.252C149.008 178.252 163.171 164.132 179.629 147.725L179.845 147.51Z" fill="url(#paint0_radial_101_4)"/>
<path d="M325.666 193.828L294.565 162.624L316.75 140.439L370.139 193.828H325.666Z" fill="url(#paint1_radial_101_4)"/>
<defs>
<radialGradient id="paint0_radial_101_4" cx="0" cy="0" r="1" gradientUnits="userSpaceOnUse" gradientTransform="translate(325.58 194.115) rotate(-135.375) scale(317.561 546.126)">
<stop stop-color="#0F60EF"/>
<stop offset="0.604167" stop-color="#01BCF7"/>
<stop offset="1" stop-color="#3FECF9"/>
</radialGradient>
<radialGradient id="paint1_radial_101_4" cx="0" cy="0" r="1" gradientUnits="userSpaceOnUse" gradientTransform="translate(325.58 194.115) rotate(-135.375) scale(317.561 546.126)">
<stop stop-color="#0F60EF"/>
<stop offset="0.604167" stop-color="#01BCF7"/>
<stop offset="1" stop-color="#3FECF9"/>
</radialGradient>
</defs>
</svg>
